<svg xmlns="http://www.w3.org/2000/svg" viewBox="0 0 600.5 184.16"><title>hs-logo</title><path d="M193.29,89.81c-.14-.25-.39-.19-.61-.21A2.09,2.09,0,0,1,190.8,88a11.35,11.35,0,0,1-.19-2c0-4,0-7.92,0-11.88,0-.5.07-1,.11-1.5q0-.31,0-.63c0-.41-.08-.83-.11-1.24s0-1.09-.05-1.62a1.87,1.87,0,0,0-1.08-1.56,4.25,4.25,0,0,0-1.82-.41H173.74a8.94,8.94,0,0,0-2.52.18,2.24,2.24,0,0,0-1.58,1.6,16.82,16.82,0,0,0-.18,2.18q0,7.48,0,15c0,.55,0,1.12-.05,1.68a1.9,1.9,0,0,1-.68,1.32,2,2,0,0,1-1.32.51c-.17,0-.4-.05-.48.2h-8.38a5.1,5.1,0,0,0-.5-.2,2.9,2.9,0,0,1-.62-.07A2.07,2.07,0,0,1,156,87.75a1.32,1.32,0,0,0-.2-.45v-54c.2,0,.19-.17.21-.3a1.67,1.67,0,0,1,.06-.46,2.11,2.11,0,0,1,1.9-1.34c.2,0,.43,0,.55-.2h8.38c.11.29.39.19.59.21a2,2,0,0,1,1.28.59,2,2,0,0,1,.64,1.34c0,.68.05,1.36.05,2q0,5.94,0,11.88a31.16,31.16,0,0,0,.18,4.64,1.91,1.91,0,0,0,1.09,1.54,3.91,3.91,0,0,0,1.73.4c4.85,0,9.7,0,14.55,0a5.7,5.7,0,0,0,2.11-.21,2.2,2.2,0,0,0,1.29-1.07,2.86,2.86,0,0,0,.22-1.32c0-3,0-6,0-9s-.2-5.89.15-8.82a2.17,2.17,0,0,1,2-2c.2,0,.43,0,.56-.21h8.38c.09.27.35.2.53.2a2.06,2.06,0,0,1,2,2c0,.2,0,.43.2.55V87.07c-.22.13-.21.36-.2.56a2.05,2.05,0,0,1-2,2c-.2,0-.43,0-.55.22Z" transform="translate(-2.5 -2.78)" style="fill:#383738"/><path d="M563.15,34.71c.31-.35.14-.77.18-1.15a2.33,2.33,0,0,1,.74-1.59,2.61,2.61,0,0,1,1.81-.63h34a4.4,4.4,0,0,1,.84,0,2.29,2.29,0,0,1,1.86,1A3.13,3.13,0,0,1,603,33.6c.06,1,0,2,0,3,0,2.06,0,4.12,0,6.18a2.06,2.06,0,0,1-1.31,2,6.24,6.24,0,0,1-2.44.39h-18c-.73,0-1.47,0-2.2.05a2.58,2.58,0,0,0-1,.38,2.25,2.25,0,0,0-1,2c-.06,1.27,0,2.55,0,3.82a3.51,3.51,0,0,0,.28,1.26,2.06,2.06,0,0,0,2,1.27c2.44,0,4.89,0,7.33,0a9.47,9.47,0,0,1,2.65.18,2.59,2.59,0,0,1,1.16.61,2.79,2.79,0,0,1,.74,2.09,70.33,70.33,0,0,1-.16,9A1.93,1.93,0,0,1,590,67.43a3.78,3.78,0,0,1-1.79.42c-2.85,0-5.69,0-8.54,0a4,4,0,0,0-1.39.3A2.08,2.08,0,0,0,577,70.24a14.94,14.94,0,0,0,.16,4.32,1.85,1.85,0,0,0,.83,1.19,3.77,3.77,0,0,0,1.94.44q9.87,0,19.75,0a11,11,0,0,1,1.54.19,2.06,2.06,0,0,1,1.72,2c0,3.09,0,6.18,0,9.27a2.08,2.08,0,0,1-.58,1.4,2.19,2.19,0,0,1-1.69.77H590l-14,0a3,3,0,0,0-.68.16H572a3.29,3.29,0,0,0-.68-.16c-1.94,0-3.88,0-5.81,0a2.18,2.18,0,0,1-2.13-2,2.29,2.29,0,0,0-.18-.56Z" transform="translate(-2.5 -2.78)" style="fill:#383738"/><path d="M162.21,154.19c1.31-1.46,2.91-4.31,5.24-3.19.92.44,1.73,1.13,2.6,1.65a25.38,25.38,0,0,0,3.26,1.72,22.71,22.71,0,0,0,6.78,1.64c3.95.39,9.92-1.45,8.25-6.63-.71-2.21-3.15-2.86-5.17-3.26-.87-.17-1.75-.27-2.64-.37s-2.14-.16-3.15-.33c-4.26-.73-8.71-1.23-12.43-3.69a15.48,15.48,0,0,1-6.83-11,16.25,16.25,0,0,1,3.23-12.58,20.91,20.91,0,0,1,11.11-6.85c8.45-2,17.92-1.21,25.38,3.54.76.48,1.58,1.08,1.58,2.08s-.85,1.91-1.46,2.66c-1.45,1.79-2.79,3.68-4.36,5.36a2.86,2.86,0,0,1-2.61,1.27,14.76,14.76,0,0,1-3.24-1.16,17.87,17.87,0,0,0-6.18-1.15,18.59,18.59,0,0,0-6.39.9c-1.79.65-4.16,2.11-3.22,4.38.79,1.9,3.44,2.25,5.24,2.43,2.11.21,4.22.52,6.34.79a25.15,25.15,0,0,1,12.27,4.46A16.82,16.82,0,0,1,202,148c.6,4.55.06,9.27-2.66,13.13A20.7,20.7,0,0,1,188,168.88a24.79,24.79,0,0,1-6.55.93,27.64,27.64,0,0,1-6.82-.71,41.69,41.69,0,0,1-12.33-5.21,26.81,26.81,0,0,1-2.67-1.91,5.11,5.11,0,0,1-1.62-2.23c.16-.56.05.1,0,0C158.62,157.5,160.68,155.89,162.21,154.19Z" transform="translate(-2.5 -2.78)" style="fill:#023ec3"/><path d="M238.69,30.93h2.75a12.87,12.87,0,0,1,2.08.24c1.82.26,2.43,2,3,3.52s1,3.24,1.61,4.82c1.22,3.16,2,6.5,3.23,9.68s2.11,6.55,3.36,9.75c1.17,3,2,6.15,3.08,9.18.58,1.56,1,3.17,1.61,4.73s1.15,3.06,1.58,4.61,1.07,3.07,1.57,4.61,1.21,3.08,1.57,4.65a2.73,2.73,0,0,1-.09,2.15c-.45.62-1,.6-1.69.73-.14,0-.11.18-.17.19a3.88,3.88,0,0,1-.69,0h-7.28a9.69,9.69,0,0,1-2.12-.27c-1.68-.37-2.17-2-2.63-3.47q-.79-2.47-1.7-4.89a3.54,3.54,0,0,0-3.31-2.62c-3.6-.27-7.32-.07-10.94-.06-1.48,0-3.79-.18-4.91,1s-1.36,3.08-1.86,4.47A20,20,0,0,1,225,88.46a2.68,2.68,0,0,1-1.61,1.07,7.94,7.94,0,0,1-2,.26h-7.17a4.92,4.92,0,0,1-.68,0h-.17c-.15.05-.23,0-.25-.17-.61-.14-1.14-.11-1.57-.69a3.26,3.26,0,0,1-.44-.82c-.07-.31.13-.38.18-.61a23.71,23.71,0,0,1,.58-2.33c.47-1.36.93-2.73,1.4-4.11,1.12-3.22,2.33-6.41,3.3-9.67.5-1.68,1.12-3.32,1.73-5s1-3.4,1.68-5.07c1.21-3.21,2.21-6.51,3.3-9.76.49-1.47,1.08-2.89,1.56-4.36.27-.81.5-1.63.77-2.45s.65-1.61.86-2.46c.39-1.55,1.07-3.1,1.59-4.62a41.78,41.78,0,0,1,1.73-4.86,3.15,3.15,0,0,1,1.39-1.51c.53-.26,1.27-.06,1.72-.43,3.21,0-.07.06,0,0Zm.86,33.89a2.35,2.35,0,0,0,1.35-.57c.89-.87.43-1.8.11-2.8-.41-1.28-.81-2.56-1.24-3.82-.29-.88-.73-3.09-1.81-3.39s-1.76,1.79-2,2.59c-.4,1.28-.87,2.53-1.25,3.82-.29,1-1.12,2.46-.37,3.46s2.34.75,3.39.75C237.73,64.9,239.45,64.83,239.54,64.82Z" transform="translate(-2.5 -2.78)" style="fill:#383738"/><path d="M217.74,114.71c.31-.35.14-.77.18-1.15a2.33,2.33,0,0,1,.74-1.59,2.61,2.61,0,0,1,1.81-.63h34a4.4,4.4,0,0,1,.84,0,2.29,2.29,0,0,1,1.86,1,3.11,3.11,0,0,1,.39,1.21c.06,1,0,2,0,3,0,2.06,0,4.12,0,6.18a2.06,2.06,0,0,1-1.31,2,6.24,6.24,0,0,1-2.44.39h-18c-.73,0-1.47,0-2.2.05a2.58,2.58,0,0,0-1,.38,2.25,2.25,0,0,0-1,2c-.06,1.27,0,2.55,0,3.82a3.51,3.51,0,0,0,.28,1.26,2.06,2.06,0,0,0,2,1.27c2.44,0,4.89,0,7.33,0a9.47,9.47,0,0,1,2.65.18,2.59,2.59,0,0,1,1.16.61,2.79,2.79,0,0,1,.74,2.09,70.33,70.33,0,0,1-.16,9,1.94,1.94,0,0,1-1.07,1.54,3.78,3.78,0,0,1-1.79.42c-2.85,0-5.69,0-8.54,0a4,4,0,0,0-1.39.3,2.08,2.08,0,0,0-1.21,2.07,14.94,14.94,0,0,0,.16,4.32,1.85,1.85,0,0,0,.83,1.19,3.77,3.77,0,0,0,1.94.44q9.87,0,19.75,0a11,11,0,0,1,1.54.19,2.06,2.06,0,0,1,1.72,2c0,3.09,0,6.18,0,9.27a2.07,2.07,0,0,1-.58,1.4,2.19,2.19,0,0,1-1.69.77H244.55l-14,0a3,3,0,0,0-.68.16h-3.35a3.29,3.29,0,0,0-.68-.16c-1.94,0-3.88,0-5.81,0a2.18,2.18,0,0,1-2.13-2,2.29,2.29,0,0,0-.18-.56Z" transform="translate(-2.5 -2.78)" style="fill:#023ec3"/><path d="M299.82,31c7.32,0,13.77,5.2,16.95,11.64a20.43,20.43,0,0,1-3.82,22.76c-1.23,1.27-3.43,2.55-3.25,4.51.14,1.53,1.33,3.15,2,4.48,1,1.86,1.95,3.72,2.9,5.58.79,1.54,1.58,3.07,2.4,4.6.58,1.08,2.13,3.22,1.18,4.41s-3.57.66-4.85.66c-2.14,0-4.28,0-6.42,0-3.75-.05-4.8-4.05-6.27-6.88-.85-1.62-1.7-3.26-2.52-4.89s-1.62-4.14-3.13-5.31c-1.32-1-3.29-.74-4.85-.73-1.38,0-3.24-.27-4.19,1s-.51,4-.51,5.54v6.38c0,1.55.31,3.58-1.25,4.5s-4.13.4-5.78.43-4.2.38-5.58-.57-1-3-1-4.47q0-14.27,0-28.53V41.86c0-2.35,0-4.7,0-7.05,0-1-.11-2.22.68-3,.21-.27,1.56-.57,1.59-.8,9.08,0,0,.24,0,0Zm-10.43,13.4c-1.14,0-2.49-.17-3.33.8-1.35,1.55-.64,5.2-.63,7.08,0,2.24-.52,5.36,2.37,5.8a40,40,0,0,0,7.85.05c2.45-.13,4.81-.07,6.79-1.73A6.78,6.78,0,0,0,301,45.16c-2.4-1.14-5.33-.71-7.91-.71C293.06,44.42,289.71,44.43,289.39,44.43Z" transform="translate(-2.5 -2.78)" style="fill:#383738"/><path d="M295.22,169.75a10.41,10.41,0,0,1-2.4-.33c-.42-.14-.88-.16-1.31-.27s-1.06-.27-1.58-.45c-.71-.24-1.41-.51-2.11-.79a22.91,22.91,0,0,1-3.6-1.76c-.66-.41-1.36-.77-2-1.21s-1.38-1.11-2.1-1.63a23.73,23.73,0,0,1-3.07-2.91c-.55-.59-1-1.24-1.51-1.86s-.8-1.1-1.19-1.66a20.82,20.82,0,0,1-1.66-2.79c-.42-.85-.84-1.7-1.19-2.58-.28-.69-.48-1.43-.71-2.15s-.41-1.24-.58-1.86-.17-1-.26-1.48c-.12-.68-.25-1.35-.37-2a2.39,2.39,0,0,1,0-.47c0-1.92,0-3.84,0-5.76a10,10,0,0,1,.33-2.28c.13-.44.17-.91.26-1.37a12.72,12.72,0,0,1,.27-1.26c.16-.54.38-1.06.53-1.6a20.52,20.52,0,0,1,1.14-2.91c.44-1,.91-1.9,1.43-2.81.42-.72,1-1.36,1.4-2.07a25,25,0,0,1,2.23-2.8,26.44,26.44,0,0,1,2.05-2c.21-.2.43-.39.66-.58a22.58,22.58,0,0,1,2.36-1.78c.68-.42,1.31-.91,2-1.31a24.89,24.89,0,0,1,2.25-1.12c.93-.42,1.88-.83,2.83-1.18.56-.21,1.15-.33,1.74-.49l1.23-.37a9,9,0,0,1,1.06-.23c.65-.09,1.3-.17,1.95-.24a12.86,12.86,0,0,1,1.54-.18c1.42,0,2.83,0,4.24,0,.81.31,1.69.07,2.5.36a9.91,9.91,0,0,0,1.37.25q.77.17,1.54.38c.58.16,1.15.3,1.73.48a10.26,10.26,0,0,1,1.24.45c.91.4,1.82.79,2.71,1.23s1.56.85,2.33,1.3c.53.31,1.06.67,1.57,1a9.56,9.56,0,0,1,.9.67,28.38,28.38,0,0,1,3.28,3.07,2.5,2.5,0,0,1,.53,2.27,1.88,1.88,0,0,1-.51.81c-1.15,1.21-2.33,2.42-3.5,3.6-1,1-2.06,2-3.08,3a2.08,2.08,0,0,1-2.05.48,2.38,2.38,0,0,1-.94-.6c-.75-.65-1.43-1.38-2.22-2a12.38,12.38,0,0,0-3.61-2c-.44-.14-.85-.36-1.28-.51a6.45,6.45,0,0,0-.88-.26c-.5-.11-1-.14-1.53-.25a11.13,11.13,0,0,0-3-.19,10.65,10.65,0,0,0-2.44.37c-.38.11-.78.14-1.15.25a19.27,19.27,0,0,0-2,.7,14,14,0,0,0-1.89,1,15.74,15.74,0,0,0-1.94,1.4,20.93,20.93,0,0,0-2,2,11.85,11.85,0,0,0-1.35,1.92,16.37,16.37,0,0,0-1.09,2.08,13,13,0,0,0-.55,1.63c-.21.78-.39,1.56-.57,2.34a3.1,3.1,0,0,0,0,.63c0,1,0,2.06,0,3.09a6.92,6.92,0,0,0,.38,2c.09.3.16.63.23.94a13.82,13.82,0,0,0,1.83,4.06,14.75,14.75,0,0,0,2.42,3,16.36,16.36,0,0,0,4.88,3.16c.51.21,1.07.33,1.6.51a19.91,19.91,0,0,0,2.05.45,23.27,23.27,0,0,0,4,.16c.58-.23,1.24-.11,1.81-.37a3.53,3.53,0,0,1,.94-.23,9.19,9.19,0,0,0,2.49-.93,17.7,17.7,0,0,0,2.44-1.44,22.33,22.33,0,0,0,2.19-1.92,4.61,4.61,0,0,1,1.35-.9,1.55,1.55,0,0,1,1.07,0,2.85,2.85,0,0,1,1.12.69c2.05,2.07,4.13,4.12,6.18,6.18a2.44,2.44,0,0,1,.68,2.43,1.92,1.92,0,0,1-.53.85c-.74.79-1.49,1.57-2.29,2.28a22.16,22.16,0,0,1-2.16,1.64c-.82.55-1.66,1.08-2.51,1.58a21.86,21.86,0,0,1-3.3,1.6c-.68.26-1.36.56-2.05.79s-1.23.34-1.83.49l-1.45.36a.64.64,0,0,1-.2,0,35.07,35.07,0,0,1-3.63.23c-.66,0-1.33,0-2,0-.05.05-.05,0-.05,0C297.62,169.78,296.41,169.86,295.22,169.75Z" transform="translate(-2.5 -2.78)" style="fill:#023ec3"/><path d="M333.61,89.71c-2.41,0-6.7.87-7.14-2.45a40.11,40.11,0,0,1,0-5.14V76.78c0-14.48,0-29,0-43.45,0-1.35.47-2.77,1.9-3.17s3.47-.14,5-.14h10.79c6.36,0,13-.68,18.89,2a26.34,26.34,0,0,1,12.71,12.86,30.34,30.34,0,0,1,2.74,8.25c.19,1.29.43,2.52.53,3.83.05.7-.05,1.45.05,2.13,0,.23.13.29.17.53s-.11.48-.15.69c-.22,1.48-.07,3-.28,4.49-.18,1.32-.48,2.66-.79,4a30,30,0,0,1-3.79,8.85A25.06,25.06,0,0,1,358.83,89.1c-.58.14-1.21.24-1.77.35-.31.08-1.87-.12-1.93.26-8.8,0,0-.16,0,0Zm6.46-19.56c0,1.45-.26,3.2.38,4.54s2.65,1.21,4,1.19h5.34a42.86,42.86,0,0,0,5.06-.06,10.78,10.78,0,0,0,7.39-5,20.32,20.32,0,0,0,1.67-18.75c-1.25-2.82-2.9-5.53-5.69-7.07-3-1.67-6.57-1.16-9.88-1.16-2,0-4.05-.16-6,0s-2.21,2-2.22,3.57c0,4.13,0,8.28,0,12.41C340.06,59.82,340.07,69.28,340.07,70.15Z" transform="translate(-2.5 -2.78)" style="fill:#383738"/><path d="M357.39,111c7.32,0,13.77,5.2,16.95,11.64a20.43,20.43,0,0,1-3.82,22.76c-1.23,1.27-3.43,2.55-3.25,4.51.14,1.53,1.33,3.15,2,4.48,1,1.86,1.95,3.72,2.9,5.58.79,1.54,1.58,3.07,2.4,4.6.58,1.08,2.13,3.22,1.18,4.41s-3.57.66-4.85.66c-2.14,0-4.28,0-6.42,0-3.75-.05-4.8-4.06-6.27-6.88-.85-1.62-1.7-3.26-2.52-4.89s-1.62-4.14-3.13-5.31c-1.32-1-3.29-.74-4.85-.73-1.38,0-3.24-.27-4.19,1s-.51,4-.51,5.54v6.38c0,1.55.31,3.58-1.25,4.5s-4.13.4-5.78.43-4.2.38-5.58-.57-1-3-1-4.47q0-14.27,0-28.54V121.86c0-2.35,0-4.7,0-7.05,0-1-.11-2.22.68-3,.21-.27,1.56-.57,1.59-.8,9.08,0,0,.24,0,0ZM347,124.43c-1.14,0-2.49-.17-3.33.8-1.35,1.55-.64,5.2-.63,7.08,0,2.24-.52,5.36,2.37,5.8a40,40,0,0,0,7.85.05c2.45-.13,4.81-.07,6.79-1.73a6.78,6.78,0,0,0-1.47-11.27c-2.4-1.14-5.33-.71-7.91-.71C350.63,124.42,347.28,124.43,347,124.43Z" transform="translate(-2.5 -2.78)" style="fill:#023ec3"/><path d="M438.85,31.45c2.28.81,1.33,3.35,1,5.41-.84,5.52-1.59,11.06-2.44,16.58-1.64,10.57-3.05,21.25-4.85,31.78-.47,2.77-.83,4.39-3.47,4.46a50,50,0,0,1-8.59,0c-2.21-.33-2.81-2.48-3.7-4.6q-1.83-4.38-3.71-8.76c-.87-2-2-4.52-3.54-1.55-1.43,2.69-2.46,5.79-3.66,8.63-.84,2-1.55,5.2-3.49,6.08a6.29,6.29,0,0,1-2.61.25h-4.71c-2.11,0-4.93.68-5.81-2.18a60.37,60.37,0,0,1-1.37-8.17c-.81-5.22-1.63-10.48-2.61-15.64s-1.58-10.21-2.54-15.27c-.46-2.42-.76-4.9-1.17-7.34s-1.25-5.12-1.15-7.57c.12-3.18,3.94-2.28,5.87-2.28S391,30.66,392,33c.83,2,1,5,1.28,7.13.35,2.55.87,5.07,1.29,7.61.89,5.33,1.77,10.68,2.67,16,.22,1.34.64,5.91,2.42,3.53a18.06,18.06,0,0,0,1.7-3.8q1-2.34,2-4.66c1.17-2.69,1.86-5.87,4.78-6,1.53-.07,3.07,0,4.6,0s2.86-.19,3.91,1.25a22.49,22.49,0,0,1,2,4.4q1,2.39,2,4.77c.38.89.86,2.71,1.68,3.2,1.37.8,1.53-1.52,1.71-2.57,1-5.47,1.73-11,2.53-16.53.47-3.3,1-6.58,1.53-9.87.21-1.46.23-3.47.88-4.76a2.28,2.28,0,0,1,.93-1c.33-.18,1.29,0,1.47-.4,2.27,0-.14.29,0,0C433.61,31.25,436.65,30.67,438.85,31.45Z" transform="translate(-2.5 -2.78)" style="fill:#383738;stroke:#383738;stroke-miterlimit:10"/><path d="M390.44,114.71c.31-.35.14-.77.18-1.15a2.33,2.33,0,0,1,.74-1.59,2.61,2.61,0,0,1,1.81-.63h34a4.4,4.4,0,0,1,.84,0,2.29,2.29,0,0,1,1.86,1,3.13,3.13,0,0,1,.39,1.21c.06,1,0,2,0,3,0,2.06,0,4.12,0,6.18a2.06,2.06,0,0,1-1.31,2,6.24,6.24,0,0,1-2.44.39h-18c-.73,0-1.47,0-2.2.05a2.58,2.58,0,0,0-1,.38,2.25,2.25,0,0,0-1,2c-.06,1.27,0,2.55,0,3.82a3.51,3.51,0,0,0,.28,1.26,2.06,2.06,0,0,0,2,1.27c2.44,0,4.89,0,7.33,0a9.47,9.47,0,0,1,2.65.18,2.59,2.59,0,0,1,1.16.61,2.79,2.79,0,0,1,.74,2.09,70.33,70.33,0,0,1-.16,9,1.93,1.93,0,0,1-1.07,1.54,3.78,3.78,0,0,1-1.79.42c-2.85,0-5.69,0-8.54,0a4,4,0,0,0-1.39.3,2.08,2.08,0,0,0-1.21,2.07,14.94,14.94,0,0,0,.16,4.32,1.85,1.85,0,0,0,.83,1.19,3.77,3.77,0,0,0,1.94.44q9.87,0,19.75,0a11,11,0,0,1,1.54.19,2.06,2.06,0,0,1,1.72,2c0,3.09,0,6.18,0,9.27a2.08,2.08,0,0,1-.58,1.4,2.19,2.19,0,0,1-1.69.77H417.26l-14,0a3,3,0,0,0-.68.16h-3.35a3.29,3.29,0,0,0-.68-.16c-1.94,0-3.88,0-5.81,0a2.18,2.18,0,0,1-2.13-2,2.29,2.29,0,0,0-.18-.56Z" transform="translate(-2.5 -2.78)" style="fill:#023ec3"/><path d="M469,30.93h2.75a12.87,12.87,0,0,1,2.08.24c1.82.26,2.43,2,3,3.52s1,3.24,1.61,4.82c1.22,3.16,2,6.5,3.23,9.68s2.11,6.55,3.36,9.75c1.17,3,2,6.15,3.08,9.18.58,1.56,1,3.17,1.61,4.73s1.15,3.06,1.58,4.61,1.07,3.07,1.57,4.61,1.21,3.08,1.57,4.65a2.73,2.73,0,0,1-.09,2.15c-.45.62-1,.6-1.69.73-.14,0-.11.18-.17.19a3.88,3.88,0,0,1-.69,0h-7.28a9.69,9.69,0,0,1-2.12-.27c-1.68-.37-2.17-2-2.63-3.47q-.79-2.47-1.7-4.89a3.54,3.54,0,0,0-3.31-2.62c-3.6-.27-7.32-.07-10.94-.06-1.48,0-3.79-.18-4.91,1s-1.36,3.08-1.86,4.47a20,20,0,0,1-1.74,4.53,2.68,2.68,0,0,1-1.61,1.07,7.94,7.94,0,0,1-2,.26h-7.17a4.92,4.92,0,0,1-.68,0h-.17c-.15.05-.23,0-.25-.17-.61-.14-1.14-.11-1.57-.69a3.26,3.26,0,0,1-.44-.82c-.07-.31.13-.38.18-.61a23.71,23.71,0,0,1,.58-2.33c.47-1.36.93-2.73,1.4-4.11,1.12-3.22,2.33-6.41,3.3-9.67.5-1.68,1.12-3.32,1.73-5s1-3.4,1.68-5.07c1.21-3.21,2.21-6.51,3.3-9.76.49-1.47,1.08-2.89,1.56-4.36.27-.81.5-1.63.77-2.45s.65-1.61.86-2.46c.39-1.55,1.07-3.1,1.59-4.62A41.78,41.78,0,0,1,460,32.86a3.15,3.15,0,0,1,1.39-1.51c.53-.26,1.27-.06,1.72-.43,3.21,0-.07.06,0,0Zm.86,33.89a2.35,2.35,0,0,0,1.35-.57c.89-.87.43-1.8.11-2.8-.41-1.28-.81-2.56-1.24-3.82-.29-.88-.73-3.09-1.81-3.39s-1.76,1.79-2,2.59c-.4,1.28-.87,2.53-1.25,3.82-.29,1-1.12,2.46-.37,3.46s2.34.75,3.39.75C468,64.9,469.73,64.83,469.82,64.82Z" transform="translate(-2.5 -2.78)" style="fill:#383738"/><path d="M490.25,122.67a3.57,3.57,0,0,0-.19.46,1.87,1.87,0,0,1-.87,1.25,3.17,3.17,0,0,1-1.63.44c-3.59.07-7.19-.2-10.77.18a1.86,1.86,0,0,0-1.61,1.07,4.79,4.79,0,0,0-.4,2.07q0,19.42,0,38.85a4.15,4.15,0,0,1-.18,1.07,2.1,2.1,0,0,1-1.85,1.58,1.21,1.21,0,0,0-.29.17h-9a1.65,1.65,0,0,0-.46-.17,2,2,0,0,1-1.65-1.12,5.28,5.28,0,0,1-.43-2.39q0-12.81,0-25.6V127.75a5.16,5.16,0,0,0-.18-1.38A1.81,1.81,0,0,0,459.2,125a14.05,14.05,0,0,0-2.48-.22c-3,0-5.9,0-8.85,0a2.29,2.29,0,0,1-2.19-1.52c0-.07-.05-7-.05-10.45.05,0,.13-.08.15-.14a2.16,2.16,0,0,1,2.13-1.58,1.62,1.62,0,0,0,.46-.17h39c.15.25.4.17.61.18a2.12,2.12,0,0,1,2.16,1.83c0,.1.11.2.16.29Z" transform="translate(-2.5 -2.78)" style="fill:#023ec3"/><path d="M530.1,31c7.32,0,13.77,5.2,16.95,11.64a20.43,20.43,0,0,1-3.82,22.76C542,66.7,539.8,68,540,69.95c.14,1.53,1.33,3.15,2,4.48,1,1.86,1.95,3.72,2.9,5.58.79,1.54,1.58,3.07,2.4,4.6.58,1.08,2.13,3.22,1.18,4.41s-3.57.66-4.85.66c-2.14,0-4.28,0-6.42,0-3.75-.05-4.8-4.05-6.27-6.88-.85-1.62-1.7-3.26-2.52-4.89s-1.62-4.14-3.13-5.31c-1.32-1-3.29-.74-4.85-.73-1.38,0-3.24-.27-4.19,1s-.51,4-.51,5.54v6.38c0,1.55.31,3.58-1.25,4.5s-4.13.4-5.78.43-4.2.38-5.58-.57-1-3-1-4.47q0-14.27,0-28.53V41.86c0-2.35,0-4.7,0-7.05,0-1-.11-2.22.68-3,.21-.27,1.56-.57,1.59-.8,9.08,0,0,.24,0,0Zm-10.43,13.4c-1.14,0-2.49-.17-3.33.8-1.35,1.55-.64,5.2-.63,7.08,0,2.24-.52,5.36,2.37,5.8a40,40,0,0,0,7.85.05c2.45-.13,4.81-.07,6.79-1.73a6.78,6.78,0,0,0-1.47-11.27c-2.4-1.14-5.33-.71-7.91-.71C523.33,44.42,520,44.43,519.67,44.43Z" transform="translate(-2.5 -2.78)" style="fill:#383738"/><path d="M507.63,154.19c1.31-1.46,2.91-4.31,5.24-3.19.92.44,1.73,1.13,2.6,1.65a25.38,25.38,0,0,0,3.26,1.72A22.71,22.71,0,0,0,525.5,156c3.95.39,9.92-1.45,8.25-6.63-.71-2.21-3.15-2.86-5.17-3.26-.87-.17-1.75-.27-2.64-.37s-2.14-.16-3.15-.33c-4.26-.73-8.71-1.23-12.43-3.69a15.48,15.48,0,0,1-6.83-11,16.25,16.25,0,0,1,3.23-12.58,20.91,20.91,0,0,1,11.11-6.85c8.45-2,17.92-1.21,25.38,3.54.76.48,1.58,1.08,1.58,2.08s-.85,1.91-1.46,2.66c-1.45,1.79-2.79,3.68-4.36,5.36a2.86,2.86,0,0,1-2.61,1.27,14.76,14.76,0,0,1-3.24-1.16,17.87,17.87,0,0,0-6.18-1.15,18.59,18.59,0,0,0-6.39.9c-1.79.65-4.16,2.11-3.22,4.38.79,1.9,3.44,2.25,5.24,2.43,2.11.21,4.22.52,6.34.79a25.15,25.15,0,0,1,12.27,4.46A16.82,16.82,0,0,1,547.45,148c.6,4.55.06,9.27-2.66,13.13a20.7,20.7,0,0,1-11.41,7.76,24.79,24.79,0,0,1-6.55.93,27.64,27.64,0,0,1-6.82-.71,41.69,41.69,0,0,1-12.33-5.21A26.81,26.81,0,0,1,505,162a5.11,5.11,0,0,1-1.62-2.23c.16-.56.05.1,0,0C504,157.5,506.1,155.89,507.63,154.19Z" transform="translate(-2.5 -2.78)" style="fill:#023ec3"/><rect x="11.98" y="8.5" width="96.14" height="147.41" style="fill:#023ec3"/><polygon points="109.02 157.86 12.88 157.86 109.02 10.46 109.02 157.86" style="fill:#042b70"/><polygon points="47.09 153.06 45.9 167.8 47.09 153.06 47.09 153.06" style="fill:#383738"/><path d="M107.9,2.78H19A16.5,16.5,0,0,0,2.5,19.28V170.43A16.5,16.5,0,0,0,19,186.94H75.35l9.75-31.09H18V18.32h90.82V155.84H85.1l-16,14.73c.1.91-1.2,2.74-1.2,3.59,0,.11,5.61-.92,5.61-.8-.1,5.37-2.75,9.53-6.21,13.57H107.9a16.5,16.5,0,0,0,16.5-16.5V19.28A16.5,16.5,0,0,0,107.9,2.78Z" transform="translate(-2.5 -2.78)" style="fill:#383738"/><path d="M63.55,65A21.76,21.76,0,1,1,41.79,86.77,21.78,21.78,0,0,1,63.55,65m0-11A32.76,32.76,0,1,0,96.3,86.77,32.76,32.76,0,0,0,63.55,54Z" transform="translate(-2.5 -2.78)" style="fill:#fff"/><path d="M58.35,55V50.27c0-2.32.85-2.47,3.17-2.47H66.8c2.32,0,2.82.14,2.82,2.47V55Z" transform="translate(-2.5 -2.78)" style="fill:#fff"/><path d="M58.35,118.85v4.76c0,2.32.85,2.47,3.17,2.47H66.8c2.32,0,2.82-.14,2.82-2.47v-4.76Z" transform="translate(-2.5 -2.78)" style="fill:#fff"/><path d="M32.37,92.41H27.61c-2.32,0-2.47-.85-2.47-3.17V84c0-2.32.14-2.82,2.47-2.82h4.76Z" transform="translate(-2.5 -2.78)" style="fill:#fff"/><path d="M94.54,92.41h4.76c2.32,0,2.47-.85,2.47-3.17V84c0-2.32-.14-2.82-2.47-2.82H94.54Z" transform="translate(-2.5 -2.78)" style="fill:#fff"/><path d="M52.62,56.55l-2.44-4.08c-1.19-2-2-1.68-4-.49l-4.54,2.71c-2,1.19-2.35,1.57-1.15,3.56l2.44,4.08Z" transform="translate(-2.5 -2.78)" style="fill:#fff"/><path d="M38.82,66.37l-4.09-2.43c-2-1.19-2.55-.53-3.74,1.47L28.29,70c-1.19,2-1.32,2.5.68,3.68l4.09,2.43Z" transform="translate(-2.5 -2.78)" style="fill:#fff"/><path d="M74.86,56.36l2.44-4.08c1.19-2,2-1.68,4-.49l4.54,2.71c2,1.19,2.35,1.57,1.15,3.56l-2.44,4.08Z" transform="translate(-2.5 -2.78)" style="fill:#fff"/><path d="M88.66,66.18l4.09-2.43c2-1.19,2.55-.53,3.74,1.47l2.7,4.54c1.19,2,1.32,2.5-.68,3.68l-4.09,2.43Z" transform="translate(-2.5 -2.78)" style="fill:#fff"/><path d="M52.5,117.34l-2.44,4.08c-1.19,2-2,1.68-4,.49l-4.54-2.71c-2-1.19-2.35-1.57-1.15-3.56l2.44-4.08Z" transform="translate(-2.5 -2.78)" style="fill:#fff"/><path d="M38.71,107.52l-4.09,2.43c-2,1.19-2.55.53-3.74-1.47l-2.7-4.54c-1.19-2-1.32-2.5.68-3.68L33,97.82Z" transform="translate(-2.5 -2.78)" style="fill:#fff"/><path d="M74.75,117.53l2.44,4.08c1.19,2,2,1.68,4,.49l4.54-2.71c2-1.19,2.35-1.57,1.15-3.56l-2.44-4.08Z" transform="translate(-2.5 -2.78)" style="fill:#fff"/><path d="M88.55,107.71l4.09,2.43c2,1.19,2.55.53,3.74-1.47l2.7-4.54c1.19-2,1.32-2.5-.68-3.68L94.3,98Z" transform="translate(-2.5 -2.78)" style="fill:#fff"/></svg>